<mxfile host="app.diagrams.net" modified="2024-04-08T05:53:51.209Z" agent="Mozilla/5.0 (Windows NT 10.0; Win64; x64) AppleWebKit/537.36 (KHTML, like Gecko) Chrome/123.0.0.0 Safari/537.36" etag="eo3cHkLN4aOpM-CKIrFz" version="24.2.2" type="github">
  <diagram name="第 1 页" id="xDeUuq_dLQ9xrVxdTuq4">
    <mxGraphModel dx="819" dy="441" grid="1" gridSize="2" guides="1" tooltips="1" connect="1" arrows="1" fold="1" page="1" pageScale="1" pageWidth="827" pageHeight="1169" math="0" shadow="0">
      <root>
        <mxCell id="0" />
        <mxCell id="1" parent="0" />
        <mxCell id="TAGOlAmAuXUKBA5VvmmO-1" value="千年舟业务流程图" style="swimlane;childLayout=stackLayout;resizeParent=1;resizeParentMax=0;startSize=20;html=1;strokeColor=#CCCCCC;" vertex="1" parent="1">
          <mxGeometry x="78.00000000000045" y="168" width="544" height="1058" as="geometry" />
        </mxCell>
        <mxCell id="TAGOlAmAuXUKBA5VvmmO-2" value="B2B" style="swimlane;startSize=20;html=1;strokeColor=#CCCCCC;" vertex="1" parent="TAGOlAmAuXUKBA5VvmmO-1">
          <mxGeometry y="20" width="120" height="1038" as="geometry" />
        </mxCell>
        <mxCell id="TAGOlAmAuXUKBA5VvmmO-3" value="NC" style="swimlane;startSize=20;html=1;strokeColor=#CCCCCC;" vertex="1" parent="TAGOlAmAuXUKBA5VvmmO-1">
          <mxGeometry x="120" y="20" width="120" height="1038" as="geometry" />
        </mxCell>
        <mxCell id="TAGOlAmAuXUKBA5VvmmO-4" value="CJM" style="swimlane;startSize=20;html=1;strokeColor=#CCCCCC;" vertex="1" parent="TAGOlAmAuXUKBA5VvmmO-1">
          <mxGeometry x="240" y="20" width="120" height="1038" as="geometry" />
        </mxCell>
        <mxCell id="TAGOlAmAuXUKBA5VvmmO-5" value="PDA" style="swimlane;startSize=20;html=1;strokeColor=#CCCCCC;" vertex="1" parent="TAGOlAmAuXUKBA5VvmmO-1">
          <mxGeometry x="360" y="20" width="184" height="1038" as="geometry" />
        </mxCell>
        <mxCell id="TAGOlAmAuXUKBA5VvmmO-6" value="运营部" style="swimlane;startSize=20;horizontal=0;html=1;whiteSpace=wrap;strokeColor=#CCCCCC;" vertex="1" parent="1">
          <mxGeometry x="58" y="208" width="500" height="68" as="geometry" />
        </mxCell>
        <mxCell id="TAGOlAmAuXUKBA5VvmmO-7" value="申购商标" style="rounded=1;whiteSpace=wrap;html=1;" vertex="1" parent="TAGOlAmAuXUKBA5VvmmO-6">
          <mxGeometry x="40" y="16" width="68" height="32" as="geometry" />
        </mxCell>
        <mxCell id="TAGOlAmAuXUKBA5VvmmO-9" value="CJM业务" style="swimlane;startSize=20;horizontal=0;html=1;whiteSpace=wrap;strokeColor=#CCCCCC;" vertex="1" parent="1">
          <mxGeometry x="58" y="276" width="500" height="74" as="geometry" />
        </mxCell>
        <mxCell id="TAGOlAmAuXUKBA5VvmmO-11" value="接单制标" style="rounded=0;whiteSpace=wrap;html=1;" vertex="1" parent="TAGOlAmAuXUKBA5VvmmO-9">
          <mxGeometry x="39" y="22" width="70" height="34" as="geometry" />
        </mxCell>
        <mxCell id="TAGOlAmAuXUKBA5VvmmO-12" style="edgeStyle=orthogonalEdgeStyle;rounded=0;orthogonalLoop=1;jettySize=auto;html=1;exitX=0.5;exitY=1;exitDx=0;exitDy=0;" edge="1" parent="1" source="TAGOlAmAuXUKBA5VvmmO-7" target="TAGOlAmAuXUKBA5VvmmO-11">
          <mxGeometry relative="1" as="geometry" />
        </mxCell>
        <mxCell id="TAGOlAmAuXUKBA5VvmmO-14" value="品牌方" style="swimlane;startSize=20;horizontal=0;html=1;whiteSpace=wrap;strokeColor=#CCCCCC;" vertex="1" parent="1">
          <mxGeometry x="58" y="350" width="500" height="74" as="geometry" />
        </mxCell>
        <mxCell id="TAGOlAmAuXUKBA5VvmmO-16" value="同步为&lt;div&gt;入库单&lt;/div&gt;" style="rounded=0;whiteSpace=wrap;html=1;" vertex="1" parent="TAGOlAmAuXUKBA5VvmmO-14">
          <mxGeometry x="285.5" y="20" width="70" height="34" as="geometry" />
        </mxCell>
        <mxCell id="TAGOlAmAuXUKBA5VvmmO-21" style="edgeStyle=orthogonalEdgeStyle;rounded=0;orthogonalLoop=1;jettySize=auto;html=1;exitX=1;exitY=0.5;exitDx=0;exitDy=0;" edge="1" parent="TAGOlAmAuXUKBA5VvmmO-14" source="TAGOlAmAuXUKBA5VvmmO-13" target="TAGOlAmAuXUKBA5VvmmO-16">
          <mxGeometry relative="1" as="geometry" />
        </mxCell>
        <mxCell id="TAGOlAmAuXUKBA5VvmmO-13" value="生成贸易单" style="rounded=0;whiteSpace=wrap;html=1;" vertex="1" parent="TAGOlAmAuXUKBA5VvmmO-14">
          <mxGeometry x="39" y="20" width="70" height="34" as="geometry" />
        </mxCell>
        <mxCell id="TAGOlAmAuXUKBA5VvmmO-17" value="临沂商标分仓" style="swimlane;startSize=20;horizontal=0;html=1;whiteSpace=wrap;strokeColor=#CCCCCC;" vertex="1" parent="1">
          <mxGeometry x="58" y="424" width="564" height="394" as="geometry" />
        </mxCell>
        <mxCell id="TAGOlAmAuXUKBA5VvmmO-28" style="edgeStyle=orthogonalEdgeStyle;rounded=0;orthogonalLoop=1;jettySize=auto;html=1;exitX=0.5;exitY=1;exitDx=0;exitDy=0;" edge="1" parent="TAGOlAmAuXUKBA5VvmmO-17" source="TAGOlAmAuXUKBA5VvmmO-18" target="TAGOlAmAuXUKBA5VvmmO-27">
          <mxGeometry relative="1" as="geometry" />
        </mxCell>
        <mxCell id="TAGOlAmAuXUKBA5VvmmO-18" value="按单扫码入库" style="rounded=0;whiteSpace=wrap;html=1;" vertex="1" parent="TAGOlAmAuXUKBA5VvmmO-17">
          <mxGeometry x="412" y="20" width="70" height="34" as="geometry" />
        </mxCell>
        <mxCell id="TAGOlAmAuXUKBA5VvmmO-31" style="edgeStyle=orthogonalEdgeStyle;rounded=0;orthogonalLoop=1;jettySize=auto;html=1;exitX=0.5;exitY=1;exitDx=0;exitDy=0;" edge="1" parent="TAGOlAmAuXUKBA5VvmmO-17" source="TAGOlAmAuXUKBA5VvmmO-27" target="TAGOlAmAuXUKBA5VvmmO-30">
          <mxGeometry relative="1" as="geometry" />
        </mxCell>
        <mxCell id="TAGOlAmAuXUKBA5VvmmO-27" value="选择产品-码关联" style="rounded=0;whiteSpace=wrap;html=1;" vertex="1" parent="TAGOlAmAuXUKBA5VvmmO-17">
          <mxGeometry x="412" y="76" width="70" height="34" as="geometry" />
        </mxCell>
        <mxCell id="TAGOlAmAuXUKBA5VvmmO-35" style="edgeStyle=orthogonalEdgeStyle;rounded=0;orthogonalLoop=1;jettySize=auto;html=1;exitX=0;exitY=0.5;exitDx=0;exitDy=0;" edge="1" parent="TAGOlAmAuXUKBA5VvmmO-17" source="TAGOlAmAuXUKBA5VvmmO-30" target="TAGOlAmAuXUKBA5VvmmO-32">
          <mxGeometry relative="1" as="geometry" />
        </mxCell>
        <mxCell id="TAGOlAmAuXUKBA5VvmmO-30" value="(部分)上传" style="rounded=0;whiteSpace=wrap;html=1;" vertex="1" parent="TAGOlAmAuXUKBA5VvmmO-17">
          <mxGeometry x="412" y="127" width="70" height="34" as="geometry" />
        </mxCell>
        <mxCell id="TAGOlAmAuXUKBA5VvmmO-34" style="edgeStyle=orthogonalEdgeStyle;rounded=0;orthogonalLoop=1;jettySize=auto;html=1;exitX=0;exitY=0.5;exitDx=0;exitDy=0;" edge="1" parent="TAGOlAmAuXUKBA5VvmmO-17" source="TAGOlAmAuXUKBA5VvmmO-32" target="TAGOlAmAuXUKBA5VvmmO-33">
          <mxGeometry relative="1" as="geometry" />
        </mxCell>
        <mxCell id="TAGOlAmAuXUKBA5VvmmO-32" value="同步上传实际数量等" style="rounded=0;whiteSpace=wrap;html=1;" vertex="1" parent="TAGOlAmAuXUKBA5VvmmO-17">
          <mxGeometry x="285.5" y="127" width="70" height="34" as="geometry" />
        </mxCell>
        <mxCell id="TAGOlAmAuXUKBA5VvmmO-33" value="采购入库单" style="rounded=0;whiteSpace=wrap;html=1;" vertex="1" parent="TAGOlAmAuXUKBA5VvmmO-17">
          <mxGeometry x="162" y="127" width="70" height="34" as="geometry" />
        </mxCell>
        <mxCell id="TAGOlAmAuXUKBA5VvmmO-51" style="edgeStyle=orthogonalEdgeStyle;rounded=0;orthogonalLoop=1;jettySize=auto;html=1;exitX=1;exitY=0.5;exitDx=0;exitDy=0;entryX=0;entryY=0.5;entryDx=0;entryDy=0;" edge="1" parent="TAGOlAmAuXUKBA5VvmmO-17" source="TAGOlAmAuXUKBA5VvmmO-48" target="TAGOlAmAuXUKBA5VvmmO-50">
          <mxGeometry relative="1" as="geometry" />
        </mxCell>
        <mxCell id="TAGOlAmAuXUKBA5VvmmO-48" value="生成调拨单" style="rounded=0;whiteSpace=wrap;html=1;" vertex="1" parent="TAGOlAmAuXUKBA5VvmmO-17">
          <mxGeometry x="162" y="182" width="70" height="34" as="geometry" />
        </mxCell>
        <mxCell id="TAGOlAmAuXUKBA5VvmmO-68" style="edgeStyle=orthogonalEdgeStyle;rounded=0;orthogonalLoop=1;jettySize=auto;html=1;exitX=0.5;exitY=1;exitDx=0;exitDy=0;entryX=0.5;entryY=0;entryDx=0;entryDy=0;" edge="1" parent="TAGOlAmAuXUKBA5VvmmO-17" source="TAGOlAmAuXUKBA5VvmmO-50" target="TAGOlAmAuXUKBA5VvmmO-52">
          <mxGeometry relative="1" as="geometry" />
        </mxCell>
        <mxCell id="TAGOlAmAuXUKBA5VvmmO-69" style="edgeStyle=orthogonalEdgeStyle;rounded=0;orthogonalLoop=1;jettySize=auto;html=1;exitX=0.5;exitY=1;exitDx=0;exitDy=0;" edge="1" parent="TAGOlAmAuXUKBA5VvmmO-17" source="TAGOlAmAuXUKBA5VvmmO-50" target="TAGOlAmAuXUKBA5VvmmO-67">
          <mxGeometry relative="1" as="geometry" />
        </mxCell>
        <mxCell id="TAGOlAmAuXUKBA5VvmmO-77" value="&lt;font style=&quot;font-size: 8px;&quot;&gt;待领标&lt;/font&gt;" style="edgeLabel;html=1;align=center;verticalAlign=middle;resizable=0;points=[];" vertex="1" connectable="0" parent="TAGOlAmAuXUKBA5VvmmO-69">
          <mxGeometry x="-0.7004" relative="1" as="geometry">
            <mxPoint as="offset" />
          </mxGeometry>
        </mxCell>
        <mxCell id="TAGOlAmAuXUKBA5VvmmO-50" value="同步调拨单" style="rounded=0;whiteSpace=wrap;html=1;" vertex="1" parent="TAGOlAmAuXUKBA5VvmmO-17">
          <mxGeometry x="287" y="182" width="70" height="34" as="geometry" />
        </mxCell>
        <mxCell id="TAGOlAmAuXUKBA5VvmmO-74" style="edgeStyle=orthogonalEdgeStyle;rounded=0;orthogonalLoop=1;jettySize=auto;html=1;exitX=0.5;exitY=1;exitDx=0;exitDy=0;entryX=0;entryY=0.5;entryDx=0;entryDy=0;" edge="1" parent="TAGOlAmAuXUKBA5VvmmO-17" source="TAGOlAmAuXUKBA5VvmmO-52" target="TAGOlAmAuXUKBA5VvmmO-73">
          <mxGeometry relative="1" as="geometry">
            <mxPoint x="346" y="332" as="targetPoint" />
          </mxGeometry>
        </mxCell>
        <mxCell id="TAGOlAmAuXUKBA5VvmmO-52" value="出库单" style="rounded=0;whiteSpace=wrap;html=1;" vertex="1" parent="TAGOlAmAuXUKBA5VvmmO-17">
          <mxGeometry x="270" y="250" width="48" height="34" as="geometry" />
        </mxCell>
        <mxCell id="TAGOlAmAuXUKBA5VvmmO-67" value="调仓单" style="rounded=0;whiteSpace=wrap;html=1;" vertex="1" parent="TAGOlAmAuXUKBA5VvmmO-17">
          <mxGeometry x="326" y="250" width="48" height="34" as="geometry" />
        </mxCell>
        <mxCell id="TAGOlAmAuXUKBA5VvmmO-70" value="&lt;span style=&quot;font-size: 8px;&quot;&gt;根据什么条件区分？&lt;/span&gt;" style="shape=note;strokeWidth=1;fontSize=14;size=7;whiteSpace=wrap;html=1;fillColor=#fff2cc;strokeColor=#d6b656;fontColor=#666600;" vertex="1" parent="TAGOlAmAuXUKBA5VvmmO-17">
          <mxGeometry x="364" y="208" width="70" height="34" as="geometry" />
        </mxCell>
        <mxCell id="TAGOlAmAuXUKBA5VvmmO-76" style="edgeStyle=orthogonalEdgeStyle;rounded=0;orthogonalLoop=1;jettySize=auto;html=1;exitX=0.5;exitY=1;exitDx=0;exitDy=0;" edge="1" parent="TAGOlAmAuXUKBA5VvmmO-17" source="TAGOlAmAuXUKBA5VvmmO-73" target="TAGOlAmAuXUKBA5VvmmO-75">
          <mxGeometry relative="1" as="geometry" />
        </mxCell>
        <mxCell id="TAGOlAmAuXUKBA5VvmmO-73" value="按单出库" style="rounded=0;whiteSpace=wrap;html=1;" vertex="1" parent="TAGOlAmAuXUKBA5VvmmO-17">
          <mxGeometry x="406" y="294" width="70" height="34" as="geometry" />
        </mxCell>
        <mxCell id="TAGOlAmAuXUKBA5VvmmO-79" style="edgeStyle=orthogonalEdgeStyle;rounded=0;orthogonalLoop=1;jettySize=auto;html=1;exitX=0;exitY=0.5;exitDx=0;exitDy=0;" edge="1" parent="TAGOlAmAuXUKBA5VvmmO-17" source="TAGOlAmAuXUKBA5VvmmO-75" target="TAGOlAmAuXUKBA5VvmmO-78">
          <mxGeometry relative="1" as="geometry" />
        </mxCell>
        <mxCell id="TAGOlAmAuXUKBA5VvmmO-80" value="&lt;font style=&quot;font-size: 8px;&quot;&gt;贴标中&lt;/font&gt;" style="edgeLabel;html=1;align=center;verticalAlign=middle;resizable=0;points=[];" vertex="1" connectable="0" parent="TAGOlAmAuXUKBA5VvmmO-79">
          <mxGeometry x="0.1753" y="2" relative="1" as="geometry">
            <mxPoint x="9" y="-2" as="offset" />
          </mxGeometry>
        </mxCell>
        <mxCell id="TAGOlAmAuXUKBA5VvmmO-75" value="选择产品-扫码-上传" style="rounded=0;whiteSpace=wrap;html=1;" vertex="1" parent="TAGOlAmAuXUKBA5VvmmO-17">
          <mxGeometry x="406" y="346" width="70" height="34" as="geometry" />
        </mxCell>
        <mxCell id="TAGOlAmAuXUKBA5VvmmO-78" value="同步出库单" style="rounded=0;whiteSpace=wrap;html=1;" vertex="1" parent="TAGOlAmAuXUKBA5VvmmO-17">
          <mxGeometry x="290" y="346" width="70" height="34" as="geometry" />
        </mxCell>
        <mxCell id="TAGOlAmAuXUKBA5VvmmO-29" value="&lt;font style=&quot;font-size: 8px;&quot;&gt;单据，商标，嵌套比例，产品都要核对，不能多不能少&lt;/font&gt;" style="shape=note;strokeWidth=1;fontSize=14;size=7;whiteSpace=wrap;html=1;fillColor=#fff2cc;strokeColor=#d6b656;fontColor=#666600;" vertex="1" parent="TAGOlAmAuXUKBA5VvmmO-17">
          <mxGeometry x="490" y="40" width="70" height="56" as="geometry" />
        </mxCell>
        <mxCell id="TAGOlAmAuXUKBA5VvmmO-20" style="edgeStyle=orthogonalEdgeStyle;rounded=0;orthogonalLoop=1;jettySize=auto;html=1;exitX=0.5;exitY=1;exitDx=0;exitDy=0;" edge="1" parent="1" source="TAGOlAmAuXUKBA5VvmmO-11" target="TAGOlAmAuXUKBA5VvmmO-13">
          <mxGeometry relative="1" as="geometry" />
        </mxCell>
        <mxCell id="TAGOlAmAuXUKBA5VvmmO-22" style="edgeStyle=orthogonalEdgeStyle;rounded=0;orthogonalLoop=1;jettySize=auto;html=1;exitX=1;exitY=0.5;exitDx=0;exitDy=0;" edge="1" parent="1" source="TAGOlAmAuXUKBA5VvmmO-16" target="TAGOlAmAuXUKBA5VvmmO-18">
          <mxGeometry relative="1" as="geometry" />
        </mxCell>
        <mxCell id="TAGOlAmAuXUKBA5VvmmO-24" style="edgeStyle=orthogonalEdgeStyle;rounded=0;orthogonalLoop=1;jettySize=auto;html=1;exitX=1;exitY=0.5;exitDx=0;exitDy=0;entryX=0.5;entryY=0;entryDx=0;entryDy=0;" edge="1" parent="1" source="TAGOlAmAuXUKBA5VvmmO-11" target="TAGOlAmAuXUKBA5VvmmO-18">
          <mxGeometry relative="1" as="geometry" />
        </mxCell>
        <mxCell id="TAGOlAmAuXUKBA5VvmmO-25" value="&lt;span style=&quot;color: rgba(0, 0, 0, 0); font-family: monospace; font-size: 0px; text-align: start; background-color: rgb(251, 251, 251);&quot;&gt;%3CmxGraphModel%3E%3Croot%3E%3CmxCell%20id%3D%220%22%2F%3E%3CmxCell%20id%3D%221%22%20parent%3D%220%22%2F%3E%3CmxCell%20id%3D%222%22%20value%3D%22%E5%8F%91%E5%AE%9E%E7%89%A9%E6%A0%87%E7%AD%BE%22%20style%3D%22edgeLabel%3Bhtml%3D1%3Balign%3Dcenter%3BverticalAlign%3Dmiddle%3Bresizable%3D0%3Bpoints%3D%5B%5D%3B%22%20vertex%3D%221%22%20connectable%3D%220%22%20parent%3D%221%22%3E%3CmxGeometry%20x%3D%22483.7857142857142%22%20y%3D%22386%22%20as%3D%22geometry%22%2F%3E%3C%2FmxCell%3E%3C%2Froot%3E%3C%2FmxGraphModel%3E&lt;/span&gt;" style="edgeLabel;html=1;align=center;verticalAlign=middle;resizable=0;points=[];" vertex="1" connectable="0" parent="TAGOlAmAuXUKBA5VvmmO-24">
          <mxGeometry x="-0.1936" y="-1" relative="1" as="geometry">
            <mxPoint as="offset" />
          </mxGeometry>
        </mxCell>
        <mxCell id="TAGOlAmAuXUKBA5VvmmO-26" value="发货实物套标" style="edgeLabel;html=1;align=center;verticalAlign=middle;resizable=0;points=[];" vertex="1" connectable="0" parent="TAGOlAmAuXUKBA5VvmmO-24">
          <mxGeometry x="-0.1863" relative="1" as="geometry">
            <mxPoint as="offset" />
          </mxGeometry>
        </mxCell>
        <mxCell id="TAGOlAmAuXUKBA5VvmmO-36" value="OEM工厂" style="swimlane;startSize=20;horizontal=0;html=1;whiteSpace=wrap;strokeColor=#CCCCCC;" vertex="1" parent="1">
          <mxGeometry x="58" y="938" width="564" height="288" as="geometry" />
        </mxCell>
        <mxCell id="TAGOlAmAuXUKBA5VvmmO-86" style="edgeStyle=orthogonalEdgeStyle;rounded=0;orthogonalLoop=1;jettySize=auto;html=1;exitX=0.5;exitY=1;exitDx=0;exitDy=0;" edge="1" parent="TAGOlAmAuXUKBA5VvmmO-36" source="TAGOlAmAuXUKBA5VvmmO-81" target="TAGOlAmAuXUKBA5VvmmO-85">
          <mxGeometry relative="1" as="geometry" />
        </mxCell>
        <mxCell id="TAGOlAmAuXUKBA5VvmmO-81" value="贴标" style="rounded=0;whiteSpace=wrap;html=1;" vertex="1" parent="TAGOlAmAuXUKBA5VvmmO-36">
          <mxGeometry x="475" y="8" width="70" height="34" as="geometry" />
        </mxCell>
        <mxCell id="TAGOlAmAuXUKBA5VvmmO-88" style="edgeStyle=orthogonalEdgeStyle;rounded=0;orthogonalLoop=1;jettySize=auto;html=1;exitX=0.5;exitY=1;exitDx=0;exitDy=0;" edge="1" parent="TAGOlAmAuXUKBA5VvmmO-36" source="TAGOlAmAuXUKBA5VvmmO-85" target="TAGOlAmAuXUKBA5VvmmO-87">
          <mxGeometry relative="1" as="geometry" />
        </mxCell>
        <mxCell id="TAGOlAmAuXUKBA5VvmmO-89" value="Y" style="edgeLabel;html=1;align=center;verticalAlign=middle;resizable=0;points=[];fontSize=7;" vertex="1" connectable="0" parent="TAGOlAmAuXUKBA5VvmmO-88">
          <mxGeometry x="-0.8048" y="-2" relative="1" as="geometry">
            <mxPoint x="2" y="3" as="offset" />
          </mxGeometry>
        </mxCell>
        <mxCell id="TAGOlAmAuXUKBA5VvmmO-92" style="edgeStyle=orthogonalEdgeStyle;rounded=0;orthogonalLoop=1;jettySize=auto;html=1;exitX=0;exitY=0.5;exitDx=0;exitDy=0;entryX=0.5;entryY=0;entryDx=0;entryDy=0;" edge="1" parent="TAGOlAmAuXUKBA5VvmmO-36" source="TAGOlAmAuXUKBA5VvmmO-85" target="TAGOlAmAuXUKBA5VvmmO-91">
          <mxGeometry relative="1" as="geometry" />
        </mxCell>
        <mxCell id="TAGOlAmAuXUKBA5VvmmO-93" value="N" style="edgeLabel;html=1;align=center;verticalAlign=middle;resizable=0;points=[];" vertex="1" connectable="0" parent="TAGOlAmAuXUKBA5VvmmO-92">
          <mxGeometry x="-0.3265" y="2" relative="1" as="geometry">
            <mxPoint as="offset" />
          </mxGeometry>
        </mxCell>
        <mxCell id="TAGOlAmAuXUKBA5VvmmO-85" value="是否退标" style="rhombus;whiteSpace=wrap;html=1;" vertex="1" parent="TAGOlAmAuXUKBA5VvmmO-36">
          <mxGeometry x="470" y="62" width="80" height="40" as="geometry" />
        </mxCell>
        <mxCell id="TAGOlAmAuXUKBA5VvmmO-94" style="edgeStyle=orthogonalEdgeStyle;rounded=0;orthogonalLoop=1;jettySize=auto;html=1;exitX=0;exitY=0.5;exitDx=0;exitDy=0;" edge="1" parent="TAGOlAmAuXUKBA5VvmmO-36" source="TAGOlAmAuXUKBA5VvmmO-87" target="TAGOlAmAuXUKBA5VvmmO-91">
          <mxGeometry relative="1" as="geometry" />
        </mxCell>
        <mxCell id="TAGOlAmAuXUKBA5VvmmO-87" value="退标扫码" style="rounded=0;whiteSpace=wrap;html=1;" vertex="1" parent="TAGOlAmAuXUKBA5VvmmO-36">
          <mxGeometry x="475" y="126" width="70" height="34" as="geometry" />
        </mxCell>
        <mxCell id="TAGOlAmAuXUKBA5VvmmO-96" style="edgeStyle=orthogonalEdgeStyle;rounded=0;orthogonalLoop=1;jettySize=auto;html=1;exitX=0;exitY=0.5;exitDx=0;exitDy=0;" edge="1" parent="TAGOlAmAuXUKBA5VvmmO-36" source="TAGOlAmAuXUKBA5VvmmO-91" target="TAGOlAmAuXUKBA5VvmmO-95">
          <mxGeometry relative="1" as="geometry" />
        </mxCell>
        <mxCell id="TAGOlAmAuXUKBA5VvmmO-91" value="报产" style="rounded=0;whiteSpace=wrap;html=1;" vertex="1" parent="TAGOlAmAuXUKBA5VvmmO-36">
          <mxGeometry x="392" y="126" width="70" height="34" as="geometry" />
        </mxCell>
        <mxCell id="TAGOlAmAuXUKBA5VvmmO-95" value="同步产量单据等" style="rounded=0;whiteSpace=wrap;html=1;" vertex="1" parent="TAGOlAmAuXUKBA5VvmmO-36">
          <mxGeometry x="292" y="126" width="70" height="34" as="geometry" />
        </mxCell>
        <mxCell id="TAGOlAmAuXUKBA5VvmmO-102" value="出库单" style="rounded=0;whiteSpace=wrap;html=1;" vertex="1" parent="TAGOlAmAuXUKBA5VvmmO-36">
          <mxGeometry x="292" y="196" width="70" height="34" as="geometry" />
        </mxCell>
        <mxCell id="TAGOlAmAuXUKBA5VvmmO-105" value="&lt;span style=&quot;font-size: 8px;&quot;&gt;这个环节激活码？&lt;/span&gt;" style="shape=note;strokeWidth=1;fontSize=14;size=7;whiteSpace=wrap;html=1;fillColor=#fff2cc;strokeColor=#d6b656;fontColor=#666600;" vertex="1" parent="TAGOlAmAuXUKBA5VvmmO-36">
          <mxGeometry x="292" y="240" width="70" height="34" as="geometry" />
        </mxCell>
        <mxCell id="TAGOlAmAuXUKBA5VvmmO-49" style="edgeStyle=orthogonalEdgeStyle;rounded=0;orthogonalLoop=1;jettySize=auto;html=1;exitX=1;exitY=0.5;exitDx=0;exitDy=0;entryX=0;entryY=0.5;entryDx=0;entryDy=0;" edge="1" parent="1" source="TAGOlAmAuXUKBA5VvmmO-46" target="TAGOlAmAuXUKBA5VvmmO-48">
          <mxGeometry relative="1" as="geometry">
            <Array as="points">
              <mxPoint x="186" y="877" />
              <mxPoint x="186" y="623" />
            </Array>
          </mxGeometry>
        </mxCell>
        <mxCell id="TAGOlAmAuXUKBA5VvmmO-72" value="品管" style="swimlane;startSize=20;horizontal=0;html=1;whiteSpace=wrap;strokeColor=#CCCCCC;" vertex="1" parent="1">
          <mxGeometry x="58" y="818" width="564" height="120" as="geometry" />
        </mxCell>
        <mxCell id="TAGOlAmAuXUKBA5VvmmO-46" value="申请商标" style="rounded=0;whiteSpace=wrap;html=1;" vertex="1" parent="TAGOlAmAuXUKBA5VvmmO-72">
          <mxGeometry x="40" y="22" width="70" height="34" as="geometry" />
        </mxCell>
        <mxCell id="TAGOlAmAuXUKBA5VvmmO-101" style="edgeStyle=orthogonalEdgeStyle;rounded=0;orthogonalLoop=1;jettySize=auto;html=1;exitX=0.5;exitY=1;exitDx=0;exitDy=0;" edge="1" parent="TAGOlAmAuXUKBA5VvmmO-72" source="TAGOlAmAuXUKBA5VvmmO-97" target="TAGOlAmAuXUKBA5VvmmO-100">
          <mxGeometry relative="1" as="geometry" />
        </mxCell>
        <mxCell id="TAGOlAmAuXUKBA5VvmmO-97" value="品牌服务确认单" style="rounded=0;whiteSpace=wrap;html=1;" vertex="1" parent="TAGOlAmAuXUKBA5VvmmO-72">
          <mxGeometry x="164" y="16" width="70" height="34" as="geometry" />
        </mxCell>
        <mxCell id="TAGOlAmAuXUKBA5VvmmO-100" value="签字确认" style="rounded=0;whiteSpace=wrap;html=1;" vertex="1" parent="TAGOlAmAuXUKBA5VvmmO-72">
          <mxGeometry x="164" y="70" width="70" height="34" as="geometry" />
        </mxCell>
        <mxCell id="TAGOlAmAuXUKBA5VvmmO-83" value="&lt;span style=&quot;font-size: 8px;&quot;&gt;这一步是谁？品管还是商标分仓&lt;/span&gt;" style="shape=note;strokeWidth=1;fontSize=14;size=7;whiteSpace=wrap;html=1;fillColor=#fff2cc;strokeColor=#d6b656;fontColor=#666600;" vertex="1" parent="1">
          <mxGeometry x="566" y="740" width="70" height="34" as="geometry" />
        </mxCell>
        <mxCell id="TAGOlAmAuXUKBA5VvmmO-82" value="&lt;span style=&quot;font-size: 8px;&quot;&gt;品管还是工厂向品牌方申请？&lt;/span&gt;" style="shape=note;strokeWidth=1;fontSize=14;size=7;whiteSpace=wrap;html=1;fillColor=#fff2cc;strokeColor=#d6b656;fontColor=#666600;" vertex="1" parent="1">
          <mxGeometry x="104" y="894" width="70" height="34" as="geometry" />
        </mxCell>
        <mxCell id="TAGOlAmAuXUKBA5VvmmO-98" style="edgeStyle=orthogonalEdgeStyle;rounded=0;orthogonalLoop=1;jettySize=auto;html=1;entryX=1;entryY=0.5;entryDx=0;entryDy=0;exitX=0;exitY=0.5;exitDx=0;exitDy=0;" edge="1" parent="1" source="TAGOlAmAuXUKBA5VvmmO-95" target="TAGOlAmAuXUKBA5VvmmO-97">
          <mxGeometry relative="1" as="geometry">
            <mxPoint x="294" y="873" as="targetPoint" />
            <Array as="points">
              <mxPoint x="330" y="1081" />
              <mxPoint x="330" y="850" />
              <mxPoint x="292" y="850" />
            </Array>
          </mxGeometry>
        </mxCell>
        <mxCell id="TAGOlAmAuXUKBA5VvmmO-99" value="&lt;font style=&quot;font-size: 8px;&quot;&gt;已报产&lt;/font&gt;&lt;div style=&quot;font-size: 8px;&quot;&gt;&lt;font style=&quot;font-size: 8px;&quot;&gt;待确认&lt;/font&gt;&lt;/div&gt;" style="edgeLabel;html=1;align=center;verticalAlign=middle;resizable=0;points=[];fontSize=8;" vertex="1" connectable="0" parent="TAGOlAmAuXUKBA5VvmmO-98">
          <mxGeometry x="0.2798" y="-1" relative="1" as="geometry">
            <mxPoint as="offset" />
          </mxGeometry>
        </mxCell>
        <mxCell id="TAGOlAmAuXUKBA5VvmmO-103" style="edgeStyle=orthogonalEdgeStyle;rounded=0;orthogonalLoop=1;jettySize=auto;html=1;exitX=0.5;exitY=1;exitDx=0;exitDy=0;entryX=0;entryY=0.5;entryDx=0;entryDy=0;" edge="1" parent="1" source="TAGOlAmAuXUKBA5VvmmO-100" target="TAGOlAmAuXUKBA5VvmmO-102">
          <mxGeometry relative="1" as="geometry" />
        </mxCell>
        <mxCell id="TAGOlAmAuXUKBA5VvmmO-104" value="&lt;font style=&quot;font-size: 8px;&quot;&gt;已出库&lt;/font&gt;" style="edgeLabel;html=1;align=center;verticalAlign=middle;resizable=0;points=[];" vertex="1" connectable="0" parent="TAGOlAmAuXUKBA5VvmmO-103">
          <mxGeometry x="0.7461" y="1" relative="1" as="geometry">
            <mxPoint as="offset" />
          </mxGeometry>
        </mxCell>
      </root>
    </mxGraphModel>
  </diagram>
</mxfile>
